<?xml version="1.0" encoding="utf-8"?>
<!-- Generator: Adobe Illustrator 22.0.1, SVG Export Plug-In . SVG Version: 6.00 Build 0)  -->
<svg version="1.1" id="Layer_1" xmlns="http://www.w3.org/2000/svg" xmlns:xlink="http://www.w3.org/1999/xlink" x="0px" y="0px"
	 viewBox="0 0 72 72" style="enable-background:new 0 0 72 72;" xml:space="preserve">
<style type="text/css">
	.st0{fill:#ECB913;}
	.st1{fill:#231F20;}
	.st2{fill:#BB1B1B;}
	.st3{fill:none;}
</style>
<g>
	<g id="emoji_loved" transform="translate(-1996 -1479)">
		<g id="Group_9851" transform="translate(1903 380)">
			<path id="Path_7021" class="st0" d="M129,1105c16.6,0,30,13.4,30,30s-13.4,30-30,30s-30-13.4-30-30S112.4,1105,129,1105z"/>
			<g id="Group_9825" transform="translate(-375.272 -64.353)">
				<path id="Rectangle_4399" class="st1" d="M490.3,1208h30l0,0l0,0c0,7.7-6.2,13.9-13.9,13.9l0,0h-2.2
					C496.5,1221.9,490.3,1215.7,490.3,1208L490.3,1208L490.3,1208z"/>
			</g>
		</g>
		<g id="Group_9853" transform="matrix(0.914, -0.407, 0.407, 0.914, 1998.78, 1495.595)">
			
				<ellipse id="Ellipse_944" transform="matrix(-0.9135 -0.4068 0.4068 -0.9135 30.0143 30.2594)" class="st2" cx="18.2" cy="11.9" rx="8.2" ry="8.2"/>
			
				<ellipse id="Ellipse_945" transform="matrix(-0.9135 -0.4068 0.4068 -0.9135 8.5394 25.7291)" class="st2" cx="7" cy="12" rx="8.2" ry="8.2"/>
			<path id="Union_15" class="st2" d="M12.5,28.8L12.5,28.8c-3.5-2.1-6.6-4.7-9.3-7.7C-1,16.5-1,12.9-1,12.9
				c6.5,0,10.8,0.7,13.7,1.8c2.9-1.1,7.2-1.8,13.7-1.8c0,0-0.4,3.6-4.5,8.2C19.1,24.1,16,26.7,12.5,28.8L12.5,28.8z"/>
		</g>
		<g id="Group_9854" transform="matrix(-0.914, -0.407, 0.407, -0.914, 2043.03, 1513.988)">
			
				<ellipse id="Ellipse_944-2" transform="matrix(0.9135 -0.4068 0.4068 0.9135 -5.1762 3.438)" class="st2" cx="5.5" cy="13.9" rx="8.2" ry="8.2"/>
			
				<ellipse id="Ellipse_945-2" transform="matrix(0.9135 -0.4068 0.4068 0.9135 -6.1601 -1.1556)" class="st2" cx="-5.8" cy="13.9" rx="8.2" ry="8.2"/>
			<path id="Union_15-2" class="st2" d="M-0.3-3L-0.3-3c-3.5,2.1-6.6,4.7-9.3,7.7c-4.2,4.6-4.2,8.2-4.2,8.2c6.5,0,10.9-0.7,13.7-1.8
				c2.9,1.1,7.2,1.8,13.7,1.8c0,0-0.4-3.6-4.5-8.2C6.3,1.7,3.2-0.9-0.3-3L-0.3-3z"/>
		</g>
	</g>
	<rect class="st3" width="72" height="72"/>
</g>
</svg>
