<?xml version="1.0" encoding="utf-8"?>
<!-- Generator: Adobe Illustrator 22.0.1, SVG Export Plug-In . SVG Version: 6.00 Build 0)  -->
<svg version="1.1" id="Layer_1" xmlns="http://www.w3.org/2000/svg" xmlns:xlink="http://www.w3.org/1999/xlink" x="0px" y="0px"
	 viewBox="0 0 72 72" style="enable-background:new 0 0 72 72;" xml:space="preserve">
<style type="text/css">
	.st0{fill:#ECB913;}
	.st1{fill:#231F20;}
	.st2{fill:#BB1B1B;}
	.st3{fill:#FFFFFF;}
	.st4{fill:#00B2DE;}
	.st5{fill:none;}
</style>
<g>
	<g id="emoji_laughing" transform="translate(-2480 -1477)">
		<g id="Path_7412">
			<path class="st0" d="M2516.2,1483c16.6,0,30,13.4,30,30c0,16.6-13.4,30-30,30c-16.6,0-30-13.4-30-30
				C2486.2,1496.4,2499.7,1483,2516.2,1483z"/>
		</g>
		<g id="Group_9874" transform="translate(1348.483 1113.104) rotate(-14)">
			<g id="Group_9872" transform="translate(1018.178 658.436)">
				<g id="Path_6073">
					<path class="st1" d="M33.3,12.8c-0.1,0-0.3-0.1-0.4-0.1l-0.4-0.2C29,11,24.1,9,24.1,5.3c0-3.5,4.3-5.3,7.8-6.7
						c0.4-0.1,0.7-0.3,1-0.4c1.3-0.5,2.7,0,3.3,1.3c0.5,1.3,0,2.7-1.3,3.3c-0.3,0.1-0.7,0.3-1,0.4c-1,0.4-3.3,1.4-4.4,2.2
						c0.8,0.6,2.5,1.5,5,2.6l0.4,0.2c1.3,0.5,1.9,2,1.3,3.3C35.7,12.5,34.4,13.1,33.3,12.8z"/>
				</g>
				<g id="Path_7401">
					<path class="st1" d="M-0.7,12.8c-0.7-0.2-1.4-0.7-1.7-1.4c-0.5-1.3,0-2.7,1.3-3.3L-0.7,8c2.6-1.1,4.3-2,5-2.6
						C3.3,4.6,0.9,3.6,0,3.2c-0.4-0.2-0.7-0.3-1-0.4c-1.3-0.5-1.9-2-1.3-3.3c0.5-1.3,2-1.9,3.3-1.3c0.3,0.1,0.6,0.3,1,0.4
						C5.3,0,9.7,1.8,9.7,5.3c0,3.6-4.8,5.7-8.4,7.2l-0.4,0.2C0.4,12.9-0.2,13-0.7,12.8z M4.8,5.8L4.8,5.8L4.8,5.8z"/>
				</g>
			</g>
			<g id="Rectangle_5792">
				<path class="st2" d="M1021,678.4h30l0,0l0,0c0,7.7-6.2,13.9-13.9,13.9c0,0,0,0,0,0h-2.2C1027.2,692.3,1021,686.1,1021,678.4
					L1021,678.4L1021,678.4z"/>
			</g>
			<g id="Rectangle_5793">
				<path class="st3" d="M1020.9,678.4h30l0,0l0,0c0,2.8-2.3,5.2-5.2,5.2c0,0,0,0,0,0h-19.7C1023.3,683.6,1020.9,681.2,1020.9,678.4
					C1020.9,678.4,1020.9,678.4,1020.9,678.4L1020.9,678.4L1020.9,678.4z"/>
			</g>
			<g id="Path_7409">
				<path class="st4" d="M1056,667.9c-0.1-0.2,4-5.9,6.5-6.6c2.4-0.7,5,0.7,5.7,3.2c0.7,2.4-0.7,5-3.2,5.7
					C1062.6,670.8,1056.1,668,1056,667.9z"/>
			</g>
			<g id="Path_7411">
				<path class="st4" d="M1015.6,667.9c0.1-0.2-4-5.9-6.5-6.6c-2.4-0.7-5,0.7-5.7,3.2c-0.7,2.4,0.7,5,3.2,5.7
					C1009,670.8,1015.5,668,1015.6,667.9z"/>
			</g>
			<g id="Path_7408">
				<path class="st4" d="M1055.2,669.7c0.1-0.2,8.3,1.8,10.1,4.1c1.8,2.4,1.4,5.7-0.9,7.6c-2.4,1.8-5.7,1.4-7.6-0.9c0,0,0,0,0,0
					C1054.9,678.2,1055,669.9,1055.2,669.7z"/>
			</g>
			<g id="Path_7410">
				<path class="st4" d="M1016.5,669.7c-0.1-0.2-8.3,1.8-10.1,4.1c-1.8,2.4-1.4,5.8,0.9,7.6c2.4,1.8,5.7,1.4,7.6-0.9
					C1016.8,678.2,1016.6,669.9,1016.5,669.7z"/>
			</g>
		</g>
	</g>
	<rect x="0" class="st5" width="72" height="72"/>
</g>
</svg>
