<?xml version="1.0" encoding="utf-8"?>
<!-- Generator: Adobe Illustrator 22.0.1, SVG Export Plug-In . SVG Version: 6.00 Build 0)  -->
<svg version="1.1" id="Layer_1" xmlns="http://www.w3.org/2000/svg" xmlns:xlink="http://www.w3.org/1999/xlink" x="0px" y="0px"
	 viewBox="0 0 72 72" style="enable-background:new 0 0 72 72;" xml:space="preserve">
<style type="text/css">
	.st0{fill:#ECB913;}
	.st1{fill:#BB1B1B;}
	.st2{fill:#231F20;}
	.st3{fill:none;}
</style>
<g>
	<g id="emoji_glasses" transform="translate(-1914 -1487)">
		<g id="Group_9855" transform="translate(1820 316)">
			<g id="Ellipse_840">
				<ellipse class="st0" cx="130" cy="1207" rx="30" ry="30"/>
			</g>
			<g id="Path_6077">
				<path class="st1" d="M133.8,1226.1c-2.3,0-4.6-0.8-6.4-2.3c-1.1-0.9-1.2-2.4-0.4-3.5c0.9-1.1,2.4-1.2,3.5-0.4
					c1.3,1.1,3.1,1.4,4.7,0.9c0,0,0.1,0,0.1,0c1.7-0.4,3-1.6,3.6-3.2c0.5-1.3,1.9-1.9,3.2-1.4c1.3,0.5,1.9,1.9,1.4,3.2
					c-1.2,3.1-3.8,5.5-7.1,6.3C135.7,1225.9,134.7,1226.1,133.8,1226.1z"/>
			</g>
		</g>
		<path id="Path_7394" class="st2" d="M1954.3,1508.2h25.5v3.8h-3.6c0,0-1,13.8-11.5,13.2s-11.8-10.9-11.8-10.9h-3.8v-6H1954.3z"/>
		<path id="Path_7395" class="st2" d="M1946.2,1508.2h-25.5v3.8h3.6c-0.2,3.4,0.7,6.7,2.6,9.6c2.2,2.5,5.5,3.9,8.9,3.7
			c11.9-0.6,11.8-10.9,11.8-10.9h3.8v-6H1946.2z"/>
	</g>
	<rect class="st3" width="72" height="72"/>
</g>
</svg>
