<?xml version="1.0" encoding="utf-8"?>
<!-- Generator: Adobe Illustrator 22.0.1, SVG Export Plug-In . SVG Version: 6.00 Build 0)  -->
<svg version="1.1" id="Layer_1" xmlns="http://www.w3.org/2000/svg" xmlns:xlink="http://www.w3.org/1999/xlink" x="0px" y="0px"
	 viewBox="0 0 72 72" style="enable-background:new 0 0 72 72;" xml:space="preserve">
<style type="text/css">
	.st0{fill:#ECB913;}
	.st1{fill:#231F20;}
	.st2{fill:#BB1B1B;}
</style>
<g id="emoji_Sad" transform="translate(-96 -1306)">
	<g id="Ellipse_836">
		<ellipse class="st0" cx="132" cy="1342" rx="30" ry="30"/>
	</g>
	<g id="Group_7384" transform="translate(111.268 1328.354)">
		<g id="Path_6074">
			<path class="st1" d="M7.9,10.2c-2.6,0-5-1.3-6.4-3.6C0.7,5.5,1.1,3.9,2.3,3.2C3.4,2.5,5,2.9,5.7,4C6.2,4.8,7,5.2,7.9,5.2
				C8.8,5.2,9.6,4.8,10,4c0.7-1.2,2.3-1.5,3.4-0.8c1.2,0.7,1.5,2.3,0.8,3.4C12.9,8.9,10.5,10.2,7.9,10.2z"/>
		</g>
		<g id="Path_6075">
			<path class="st1" d="M34.2,10.2c-2.6,0-5-1.3-6.4-3.6c-0.7-1.2-0.4-2.7,0.8-3.4S31.3,2.9,32,4c0.5,0.8,1.3,1.2,2.2,1.2
				c0.9,0,1.7-0.5,2.2-1.2c0.7-1.2,2.3-1.5,3.4-0.8s1.5,2.3,0.8,3.4C39.2,8.9,36.8,10.2,34.2,10.2z"/>
		</g>
	</g>
	<g id="Path_6076">
		<path class="st2" d="M124.7,1357.2c-0.8,0-1.6-0.4-2.1-1.1c-0.8-1.1-0.5-2.7,0.6-3.5c2.6-1.8,5.7-2.8,9-2.8c3.2,0,6.3,1,9,2.8
			c1.1,0.8,1.4,2.3,0.6,3.5c-0.8,1.1-2.3,1.4-3.5,0.6c-1.8-1.3-3.9-1.9-6.1-1.9c-2.2,0-4.3,0.7-6.1,1.9
			C125.7,1357.1,125.2,1357.2,124.7,1357.2z"/>
	</g>
</g>
</svg>
