<?xml version="1.0" encoding="utf-8"?>
<!-- Generator: Adobe Illustrator 22.0.1, SVG Export Plug-In . SVG Version: 6.00 Build 0)  -->
<svg version="1.1" id="Layer_1" xmlns="http://www.w3.org/2000/svg" xmlns:xlink="http://www.w3.org/1999/xlink" x="0px" y="0px"
	 viewBox="0 0 72 72" style="enable-background:new 0 0 72 72;" xml:space="preserve">
<style type="text/css">
	.st0{fill:#ECB913;}
	.st1{fill:none;stroke:#FFFFFF;}
	.st2{fill:none;}
</style>
<g>
	<g id="emoji_power" transform="translate(-1634 -1431)">
		<g id="Group_9832" transform="translate(-1173 155.242)">
			<path id="Path_7376" class="st0" d="M2843.2,1287.9c1.3,1.6,2.4,3.3,3.2,5.1c0.2,0.8,0.1,1.6-0.2,2.3c-0.6,0.7-1.3,1.1-2.2,1.1
				c-0.5,0,0.4,0.6,0.4,0.6s0.6,2.2-2.6,2.3c-1.9,0.1-3.9,0-5.8-0.4c-1.6,1.2-2.5,3-2.3,5c0.1,3.5,1.3,6.1,0.4,8.6
				c-0.2,1-0.6,1.9-1.1,2.7c1.4-0.5,2.9-0.8,4.5-1c1.5,0,3.6-5.2,11.4-6.3c3.6-0.5,14.2,3,14.2,3s0.1,5,0,7.7
				c-0.1,3.1,0,10.8,0,10.8s-8.1-0.2-11.6,0c-8.8,0.6-21.4-0.3-25.1-1.7c-2.1-0.7-3.9-2.1-5.1-4c0,0,1.1-8.9,1-11.4
				c-0.1-2.5,4-13.4,6.6-17.3S2841.1,1285.3,2843.2,1287.9z"/>
			<path id="Path_7377" class="st1" d="M2838.9,1318.1c0.8,4.2,4.4,7.3,8.7,7.3c7.7,0.5,10.3-4.7,10.3-4.7"/>
			<path id="Path_7378" class="st1" d="M2833.1,1315c-1.1,1.2-1.8,2.7-2.1,4.4c-0.1,1.3-0.1,2.6,0,3.9"/>
			<path id="Path_7379" class="st1" d="M2833.1,1295.6c0.2,1.6,1.4,3,3,3.5"/>
			<path id="Path_7380" class="st1" d="M2841.8,1292.7c-0.8-0.2-1.6-0.2-2.4,0c-0.8,0.4-1.3,0.9-0.7,1.8c0.6,0.9,1.4,2,5.1,2.1"/>
		</g>
	</g>
	<rect class="st2" width="72" height="72"/>
</g>
</svg>
