<?xml version="1.0" encoding="utf-8"?>
<!-- Generator: Adobe Illustrator 22.0.1, SVG Export Plug-In . SVG Version: 6.00 Build 0)  -->
<svg version="1.1" id="Layer_1" xmlns="http://www.w3.org/2000/svg" xmlns:xlink="http://www.w3.org/1999/xlink" x="0px" y="0px"
	 viewBox="0 0 72 72" style="enable-background:new 0 0 72 72;" xml:space="preserve">
<style type="text/css">
	.st0{fill:#ECB913;}
	.st1{fill:#231F20;}
	.st2{fill:#BB1B1B;}
	.st3{fill:none;}
</style>
<g>
	<g id="emoji_stressed" transform="translate(-1745 -1356)">
		<g id="emoji_stressed-2" transform="translate(1651 116)">
			<g id="Ellipse_837">
				<g>
					<ellipse class="st0" cx="130" cy="1276" rx="30" ry="30"/>
				</g>
			</g>
			<g id="Group_7386" transform="translate(107.735 1261.484)">
				<g id="Ellipse_838">
					<g>
						<ellipse class="st1" cx="36.5" cy="9.9" rx="4.8" ry="4.8"/>
					</g>
				</g>
				<g id="Ellipse_839">
					<g>
						<ellipse class="st1" cx="8" cy="9.9" rx="4.8" ry="4.8"/>
					</g>
				</g>
			</g>
			<g id="Path_7418">
				<g>
					<path class="st2" d="M142.5,1293.6c-0.8,0-1.6-0.4-2.1-1.1c-2.2-3.2-5.8-5-9.6-4.9c-3.9-0.1-7.6,1.8-9.7,4.9
						c-0.8,1.1-2.3,1.4-3.5,0.7c-1.1-0.8-1.4-2.3-0.7-3.5c3.1-4.6,8.3-7.2,13.9-7.1c5.4-0.1,10.6,2.5,13.7,7.1
						c0.8,1.1,0.5,2.7-0.7,3.5C143.4,1293.4,143,1293.6,142.5,1293.6z"/>
				</g>
			</g>
		</g>
		<g id="Group_9906" transform="translate(-0.541)">
			<g id="Group_9904" transform="translate(1758.541 1375.484)">
				<g id="Line_1948">
					<path class="st1" d="M3,7.1c-1,0-1.9-0.6-2.3-1.5C0.2,4.3,0.7,2.9,2,2.3l8.7-3.7C12-2,13.5-1.4,14-0.1c0.5,1.3,0,2.7-1.3,3.3
						L4,6.9C3.7,7.1,3.3,7.1,3,7.1z"/>
				</g>
			</g>
			<g id="Group_9905" transform="translate(1783.541 1372.5)">
				<g id="Line_1948-2">
					<path class="st1" d="M17.9,10.1c-0.3,0-0.7-0.1-1-0.2L8.3,6.2C7,5.6,6.4,4.2,7,2.9C7.5,1.6,9,1,10.2,1.6l8.7,3.7
						c1.3,0.5,1.9,2,1.3,3.3C19.8,9.5,18.9,10.1,17.9,10.1z"/>
				</g>
			</g>
		</g>
	</g>
	<rect class="st3" width="72" height="72"/>
</g>
</svg>
