<?xml version="1.0" encoding="utf-8"?>
<!-- Generator: Adobe Illustrator 22.0.1, SVG Export Plug-In . SVG Version: 6.00 Build 0)  -->
<svg version="1.1" id="Layer_1" xmlns="http://www.w3.org/2000/svg" xmlns:xlink="http://www.w3.org/1999/xlink" x="0px" y="0px"
	 viewBox="0 0 72 72" style="enable-background:new 0 0 72 72;" xml:space="preserve">
<style type="text/css">
	.st0{fill:#ECB913;}
	.st1{fill:#231F20;}
	.st2{fill:#BB1B1B;}
	.st3{fill:none;}
</style>
<g>
	<g id="emoji_toung" transform="translate(-93 -1099)">
		<g id="Path_7021">
			<path class="st0" d="M129,1105c16.6,0,30,13.4,30,30c0,16.6-13.4,30-30,30s-30-13.4-30-30C99,1118.4,112.4,1105,129,1105z"/>
		</g>
		<g id="Rectangle_4399">
			<path class="st1" d="M115,1139.9h30l0,0l0,0c0,7.7-6.2,13.9-13.9,13.9c0,0,0,0,0,0H129C121.3,1153.8,115,1147.6,115,1139.9
				L115,1139.9L115,1139.9z"/>
		</g>
		<g id="Group_7390" transform="translate(110.841 1118.246)">
			<g id="Path_6080">
				<path class="st1" d="M25.7,13c-0.2,0-0.4,0-0.6-0.1c-1.3-0.3-2.2-1.7-1.8-3c1.3-5,3.7-7.8,6.7-7.8c3,0,5.5,2.8,6.7,7.8
					c0.3,1.3-0.5,2.7-1.8,3c-1.3,0.3-2.7-0.5-3-1.8c-0.7-2.6-1.5-3.7-1.9-4c-0.4,0.3-1.2,1.4-1.9,4C27.8,12.2,26.8,13,25.7,13z"/>
			</g>
			<g id="Path_6081">
				<path class="st1" d="M12.9,13H4.2c-1.4,0-2.5-1.1-2.5-2.5S2.8,8,4.2,8h8.7c1.4,0,2.5,1.1,2.5,2.5S14.3,13,12.9,13z"/>
			</g>
		</g>
		<g id="Path_7396">
			<path class="st2" d="M120.8,1143.8h18.8c0,0-0.1,9.8-0.7,12.8s-2,5.7-7.9,5.8c-4,0.3-7.6-2.3-8.5-6.2
				C121.7,1153.8,120.8,1143.8,120.8,1143.8z"/>
		</g>
	</g>
	<rect class="st3" width="72" height="72"/>
</g>
</svg>
