<?xml version="1.0" encoding="utf-8"?>
<!-- Generator: Adobe Illustrator 22.0.1, SVG Export Plug-In . SVG Version: 6.00 Build 0)  -->
<svg version="1.1" id="Layer_1" xmlns="http://www.w3.org/2000/svg" xmlns:xlink="http://www.w3.org/1999/xlink" x="0px" y="0px"
	 viewBox="0 0 72 72" style="enable-background:new 0 0 72 72;" xml:space="preserve">
<style type="text/css">
	.st0{fill:#ECB913;}
	.st1{fill:#BB1B1B;}
	.st2{fill:#231F20;}
	.st3{enable-background:new    ;}
	.st4{fill:none;stroke:#231F20;}
	.st5{fill:none;}
</style>
<g>
	<g id="emoji_Sleepy" transform="translate(-1843 -1487)">
		<g id="Group_9888">
			<g id="Path_7381">
				<path class="st0" d="M1879,1493c16.6,0,30,13.4,30,30c0,16.6-13.4,30-30,30c-16.6,0-30-13.4-30-30
					C1849,1506.4,1862.4,1493,1879,1493z"/>
			</g>
			<g id="Group_9836" transform="translate(1374.728 320.647)">
				<g id="Rectangle_4399">
					<path class="st1" d="M505.3,1212.3L505.3,1212.3c3.5,0,6.3,2.8,6.3,6.3v1.4c0,3.5-2.8,6.3-6.3,6.3h0c-3.5,0-6.3-2.8-6.3-6.3
						v-1.4C499.1,1215.1,501.9,1212.3,505.3,1212.3z"/>
				</g>
				<g id="Group_7390" transform="translate(484.228 1188.488)">
					<g id="Path_6080">
						<path class="st2" d="M34.1,17.7c-2.5,0-4.9-1.3-6.3-3.4c-0.8-1.2-0.4-2.7,0.7-3.5s2.7-0.4,3.5,0.7c0.5,0.7,1.3,1.2,2.2,1.2
							c0,0,0,0,0,0c0.9,0,1.7-0.4,2.2-1.2c0.8-1.2,2.3-1.5,3.5-0.7c1.2,0.8,1.5,2.3,0.7,3.5C39.2,16.5,36.8,17.7,34.1,17.7
							C34.2,17.7,34.2,17.7,34.1,17.7z"/>
					</g>
					<g id="Path_6081">
						<path class="st2" d="M8,17.7c-2.5,0-4.9-1.3-6.3-3.4c-0.8-1.2-0.4-2.7,0.7-3.5c1.2-0.8,2.7-0.4,3.5,0.7
							c0.5,0.7,1.3,1.2,2.2,1.2c0,0,0,0,0,0c0.9,0,1.7-0.4,2.2-1.2c0.8-1.2,2.3-1.5,3.5-0.7c1.2,0.8,1.5,2.3,0.7,3.5
							C13,16.5,10.6,17.7,8,17.7C8,17.7,8,17.7,8,17.7z"/>
					</g>
				</g>
			</g>
			<g id="Group_9837" transform="translate(1870.256 1499.385)">
				<g class="st3">
					<path class="st2" d="M13.9,17.4H6.6V16l4.7-6.7H6.7V7.5h7v1.3l-4.7,6.8h4.8V17.4z"/>
				</g>
				<g class="st3">
					<path class="st4" d="M13.9,17.4H6.6V16l4.7-6.7H6.7V7.5h7v1.3l-4.7,6.8h4.8V17.4z"/>
				</g>
				<g class="st3">
					<path class="st2" d="M13.9,17.4H6.6V16l4.7-6.7H6.7V7.5h7v1.3l-4.7,6.8h4.8V17.4z"/>
				</g>
				<g class="st3">
					<path class="st4" d="M13.9,17.4H6.6V16l4.7-6.7H6.7V7.5h7v1.3l-4.7,6.8h4.8V17.4z"/>
				</g>
			</g>
			<g id="Group_9838" transform="translate(1877.897 1488.948)">
				<g class="st3">
					<path class="st2" d="M21.1,24.1h-12v-2.2l7.7-11H9.3V8h11.5v2.2l-7.7,11.1h7.9V24.1z"/>
				</g>
				<g class="st3">
					<path class="st4" d="M21.1,24.1h-12v-2.2l7.7-11H9.3V8h11.5v2.2l-7.7,11.1h7.9V24.1z"/>
				</g>
				<g class="st3">
					<path class="st2" d="M21.1,24.1h-12v-2.2l7.7-11H9.3V8h11.5v2.2l-7.7,11.1h7.9V24.1z"/>
				</g>
				<g class="st3">
					<path class="st4" d="M21.1,24.1h-12v-2.2l7.7-11H9.3V8h11.5v2.2l-7.7,11.1h7.9V24.1z"/>
				</g>
			</g>
		</g>
	</g>
	<rect class="st5" width="72" height="72"/>
</g>
</svg>
