<?xml version="1.0" encoding="utf-8"?>
<!-- Generator: Adobe Illustrator 22.0.1, SVG Export Plug-In . SVG Version: 6.00 Build 0)  -->
<svg version="1.1" id="Layer_1" xmlns="http://www.w3.org/2000/svg" xmlns:xlink="http://www.w3.org/1999/xlink" x="0px" y="0px"
	 viewBox="0 0 72 72" style="enable-background:new 0 0 72 72;" xml:space="preserve">
<style type="text/css">
	.st0{fill:#ECB913;}
	.st1{fill:#231F20;}
</style>
<g id="emoji_mask" transform="translate(-2002 -1494)">
	<g id="Group_9894" transform="translate(-137 -53)">
		<g id="Group_9881" transform="translate(2045 590)">
			<g>
				<path class="st0" d="M113.3,995.4c0.9-1.4,2.4-2.4,4.2-2.4h25c1.9,0,3.6,1.1,4.4,2.7l12.9-5.6c-1.4-15.2-14.3-27.1-29.9-27.1
					c-15.4,0-28.2,11.7-29.8,26.7L113.3,995.4z"/>
				<path class="st0" d="M147.3,1013.2c-0.6,2.1-2.5,3.6-4.8,3.6h-25c-2,0-3.8-1.2-4.6-3l-3.1,1.4c5.3,4.9,12.4,7.8,20.2,7.8
					c8,0,15.3-3.2,20.7-8.3L147.3,1013.2z"/>
				<path class="st0" d="M147.5,999.6v9.6l5.9,2.5c3.9-4.9,6.3-10.9,6.5-17.6L147.5,999.6z"/>
				<path class="st0" d="M112.5,999.1l-12.5-5.4c0.2,7.1,2.8,13.6,7,18.6l5.5-2.5V999.1z"/>
			</g>
			<g id="Group_9840" transform="translate(108.752 976.484)">
				<g id="Ellipse_838">
					<ellipse class="st1" cx="36" cy="9.4" rx="4.8" ry="4.8"/>
				</g>
				<g id="Ellipse_839">
					<ellipse class="st1" cx="8.3" cy="9.4" rx="4.8" ry="4.8"/>
				</g>
			</g>
		</g>
	</g>
</g>
</svg>
