<?xml version="1.0" encoding="utf-8"?>
<!-- Generator: Adobe Illustrator 22.0.1, SVG Export Plug-In . SVG Version: 6.00 Build 0)  -->
<svg version="1.1" id="Layer_1" xmlns="http://www.w3.org/2000/svg" xmlns:xlink="http://www.w3.org/1999/xlink" x="0px" y="0px"
	 viewBox="0 0 72 72" style="enable-background:new 0 0 72 72;" xml:space="preserve">
<style type="text/css">
	.st0{fill:#ECB913;}
	.st1{fill:#BB1B1B;}
	.st2{fill:#231F20;}
	.st3{fill:#00B2DE;}
	.st4{fill:none;}
</style>
<g>
	<g id="emoji_crying" transform="translate(-2211 -1478)">
		<g id="Ellipse_939">
			<ellipse class="st0" cx="2247" cy="1514" rx="30" ry="30"/>
		</g>
		<g id="Path_7386">
			<path class="st1" d="M2255.7,1534.4c-0.8,0-1.6-0.4-2.1-1.1c-1.3-1.9-3.5-3-5.9-3c-2.4,0-4.7,1.1-6,3c-0.8,1.1-2.3,1.4-3.5,0.7
				c-1.1-0.8-1.4-2.3-0.7-3.5c2.3-3.3,6-5.3,10.1-5.2c4-0.1,7.7,1.9,10,5.2c0.8,1.1,0.5,2.7-0.7,3.5
				C2256.7,1534.2,2256.2,1534.4,2255.7,1534.4z"/>
		</g>
		<g id="Group_9841" transform="translate(2224.184 1503.34)">
			<g id="Path_6072">
				<path class="st2" d="M9.7,14.2c-3.8,0-7.1-2.7-9-7.1C0.2,5.8,0.8,4.3,2.1,3.8c1.3-0.5,2.7,0.1,3.3,1.3c1,2.5,2.7,4,4.3,4
					c1.6,0,3.3-1.5,4.4-4c0.5-1.3,2-1.9,3.3-1.3c1.3,0.5,1.9,2,1.3,3.3C16.8,11.5,13.5,14.2,9.7,14.2z"/>
			</g>
			<g id="Path_6073">
				<path class="st2" d="M37.4,14.2c-3.8,0-7.1-2.7-9-7.1c-0.5-1.3,0.1-2.7,1.3-3.3C31,3.2,32.5,3.8,33,5.1c1,2.5,2.7,4,4.4,4
					c1.6,0,3.3-1.5,4.3-4c0.5-1.3,2-1.9,3.3-1.3c1.3,0.5,1.9,2,1.3,3.3C44.5,11.5,41.1,14.2,37.4,14.2z"/>
			</g>
		</g>
		<g id="Path_7387">
			<path class="st3" d="M2226.3,1513c0.3-0.1,7.1,8.6,7.1,12.5c0,3.9-3.2,7.1-7.1,7.1c-3.9,0-7.1-3.2-7.1-7.1c0,0,0,0,0,0
				C2219.1,1521.6,2226,1513,2226.3,1513z"/>
		</g>
	</g>
	<rect class="st4" width="72" height="72"/>
</g>
</svg>
