<?xml version="1.0" encoding="utf-8"?>
<!-- Generator: Adobe Illustrator 22.0.1, SVG Export Plug-In . SVG Version: 6.00 Build 0)  -->
<svg version="1.1" id="Layer_1" xmlns="http://www.w3.org/2000/svg" xmlns:xlink="http://www.w3.org/1999/xlink" x="0px" y="0px"
	 viewBox="0 0 72 72" style="enable-background:new 0 0 72 72;" xml:space="preserve">
<style type="text/css">
	.st0{fill:#ECB913;}
	.st1{fill:#BB1B1B;}
	.st2{fill:#231F20;}
	.st3{fill:none;}
</style>
<g id="emoji_Happy" transform="translate(-93 -1099)">
	<g id="Path_7021">
		<path class="st0" d="M129,1105c16.6,0,30,13.4,30,30c0,16.6-13.4,30-30,30s-30-13.4-30-30C99,1118.4,112.4,1105,129,1105z"/>
	</g>
	<g id="Group_9825" transform="translate(-375.272 -66.353)">
		<g id="Rectangle_4399">
			<path class="st1" d="M490.3,1207.5h30l0,0l0,0c0,7.7-6.2,13.9-13.9,13.9c0,0,0,0,0,0h-2.2
				C496.5,1221.4,490.3,1215.2,490.3,1207.5L490.3,1207.5L490.3,1207.5z"/>
		</g>
		<g id="Group_7390" transform="translate(486.113 1184.599)">
			<g id="Path_6080">
				<path class="st2" d="M25.7,13c-0.2,0-0.4,0-0.6-0.1c-1.3-0.3-2.2-1.7-1.8-3c1.3-5,3.7-7.8,6.7-7.8c3,0,5.5,2.8,6.7,7.8
					c0.3,1.3-0.5,2.7-1.8,3c-1.3,0.3-2.7-0.5-3-1.8c-0.7-2.6-1.5-3.7-1.9-4c-0.4,0.3-1.2,1.4-1.9,4C27.8,12.2,26.8,13,25.7,13z"/>
			</g>
			<g id="Path_6081">
				<path class="st2" d="M4.2,13c-0.2,0-0.4,0-0.6-0.1c-1.3-0.3-2.2-1.7-1.8-3c1.3-5,3.7-7.8,6.7-7.8c3,0,5.5,2.8,6.7,7.8
					c0.3,1.3-0.5,2.7-1.8,3c-1.3,0.3-2.7-0.5-3-1.8c-0.7-2.6-1.5-3.7-1.9-4c-0.4,0.3-1.2,1.4-1.9,4C6.4,12.2,5.3,13,4.2,13z"/>
			</g>
		</g>
	</g>
</g>
<rect class="st3" width="72" height="72"/>
</svg>
