<?xml version="1.0" encoding="utf-8"?>
<!-- Generator: Adobe Illustrator 22.0.1, SVG Export Plug-In . SVG Version: 6.00 Build 0)  -->
<svg version="1.1" id="Layer_1" xmlns="http://www.w3.org/2000/svg" xmlns:xlink="http://www.w3.org/1999/xlink" x="0px" y="0px"
	 viewBox="0 0 72 72" style="enable-background:new 0 0 72 72;" xml:space="preserve">
<style type="text/css">
	.st0{fill:#ECB913;}
	.st1{fill:none;}
</style>
<g>
	<g id="emoji_thumbsdown" transform="translate(-1506 -1428)">
		<g id="Group_9834" transform="translate(-1208.946 185.91)">
			<path id="Path_7375" class="st0" d="M2750.7,1255.5v8.2l-6,11.7l-1.9,2v15.2c0.7,0.2,1.3,0.5,1.9,0.9c1.2,0.7,2.5,1.1,3.9,1.1
				h16.4c0,0,2.4-0.7,2.1-2.6c-0.1-1-0.4-1.9-1.1-2.7c0,0,3.7-0.2,3.8-2.7c0.1-2.5-1.5-3.2-1.5-3.2s3.7-0.7,3.6-3.4
				c-0.1-2.7-3.2-3-3.2-3s3.3-1.2,2.7-3.8c-0.6-2.7-3.5-2.2-3.5-2.2h-12.4l1.2-7c0,0,0.2-4-1.6-6.3
				C2754.1,1256.3,2752.5,1255.5,2750.7,1255.5z"/>
			<path id="Rectangle_5778" class="st0" d="M2733.2,1275.9h5.6c0.6,0,1.1,0.5,1.1,1.1v16.7c0,0.6-0.5,1.1-1.1,1.1h-5.6
				c-0.6,0-1.1-0.5-1.1-1.1V1277C2732.1,1276.4,2732.6,1275.9,2733.2,1275.9z"/>
		</g>
	</g>
	<rect x="0" class="st1" width="72" height="72"/>
</g>
</svg>
