<?xml version="1.0" encoding="utf-8"?>
<!-- Generator: Adobe Illustrator 22.0.1, SVG Export Plug-In . SVG Version: 6.00 Build 0)  -->
<svg version="1.1" id="Layer_1" xmlns="http://www.w3.org/2000/svg" xmlns:xlink="http://www.w3.org/1999/xlink" x="0px" y="0px"
	 viewBox="0 0 72 72" style="enable-background:new 0 0 72 72;" xml:space="preserve">
<style type="text/css">
	.st0{fill:#231F20;}
	.st1{fill:none;}
</style>
<g>
	<g>
		<path class="st0" d="M58.8,27.1c1.5,0,2.8-1.2,2.8-2.8c0-1.4-1-2.6-2.4-2.7c0.1-0.4,0.2-0.7,0.2-1.1c0-1.8-1.2-3.3-2.8-3.3
			c-1.5,0-2.8,1.5-2.8,3.3c0,0.6,0.1,1.2,0.4,1.6l-3.2,2.1c0.5,0.9,1,1.7,1.4,2.7c0.2,0.5,0.4,1,0.6,1.5l3.6-2.4
			C57.1,26.7,57.9,27.1,58.8,27.1z"/>
		<path class="st0" d="M18.2,43v-2.6l-3.4,2.2c-0.5-0.5-1.2-0.8-2-0.8c-1.6,0-2.9,1.3-2.9,2.9c0,1.4,1,2.6,2.4,2.8
			c0,0.2-0.1,0.4-0.1,0.6c0,1.6,1.3,2.9,2.9,2.9s2.9-1.3,2.9-2.9c0-0.7-0.2-1.3-0.6-1.8l1.2-0.8C18.4,44.8,18.2,43.9,18.2,43z"/>
		<path class="st0" d="M51,29.7L51,29.7c-0.1-0.4-0.2-0.7-0.3-1.1c0,0,0-0.1,0-0.1c-0.4-1.1-0.9-2.1-1.5-3.1c0,0,0,0,0,0l0,0
			c-2.8-4.3-7.6-7.2-13.1-7.2c-6.7,0-12.4,4.3-14.6,10.2c0,0,0,0.1,0,0.1c-0.6,1.6-0.9,3.4-0.9,5.2V39V43c0,0.3,0,0.5,0.1,0.8
			c0,0.2,0.1,0.4,0.1,0.5l0,0l0,0c0.6,2.2,2.6,3.9,5,3.9h1.5v5.6c0,1.8,1.5,3.3,3.3,3.3h11.1c1.8,0,3.3-1.5,3.3-3.3v-5.6h1.5
			c2.6,0,4.7-1.9,5.1-4.4c0-0.3,0.1-0.5,0.1-0.8V39v-5.2C51.6,32.4,51.3,31,51,29.7L51,29.7z M28.2,38.2c-2.5,0-4.4-2-4.4-4.4
			s2-4.4,4.4-4.4c2.5,0,4.4,2,4.4,4.4S30.7,38.2,28.2,38.2z M33.8,52.1c0,0.9-0.7,1.7-1.7,1.7c-0.9,0-1.7-0.7-1.7-1.7v-2.2
			c0-0.9,0.7-1.7,1.7-1.7c0.9,0,1.7,0.7,1.7,1.7V52.1z M38.2,52.1c0,0.9-0.7,1.7-1.7,1.7s-1.7-0.7-1.7-1.7v-2.2
			c0-0.9,0.7-1.7,1.7-1.7s1.7,0.7,1.7,1.7V52.1z M39.1,41.8c-0.1,0.1-0.3,0.2-0.5,0.2l-2-1.2L34.5,42c-0.4,0-0.7-0.3-0.7-0.7
			c0-0.2,0.1-0.3,0.2-0.5l2.1-2.5c0.3-0.3,0.7-0.3,1-0.1c0,0,0.1,0.1,0.1,0.1l2.1,2.5C39.4,41.1,39.4,41.6,39.1,41.8z M42.7,52.1
			c0,0.9-0.7,1.7-1.7,1.7s-1.7-0.7-1.7-1.7v-2.2c0-0.9,0.7-1.7,1.7-1.7s1.7,0.7,1.7,1.7V52.1z M43.8,38.2c-2.5,0-4.4-2-4.4-4.4
			s2-4.4,4.4-4.4c2.5,0,4.4,2,4.4,4.4S46.2,38.2,43.8,38.2z"/>
		<path class="st0" d="M62,44.7c0-1.6-1.3-2.9-2.9-2.9c-0.8,0-1.5,0.3-2,0.8l-3.4-2.2V43c0,0.9-0.2,1.8-0.5,2.6l1.2,0.8
			c-0.4,0.5-0.6,1.1-0.6,1.8c0,1.6,1.3,2.9,2.9,2.9s2.9-1.3,2.9-2.9c0-0.2,0-0.4-0.1-0.6C61,47.3,62,46.1,62,44.7z"/>
		<path class="st0" d="M18.1,22.2c0.4-0.5,0.6-1.1,0.6-1.8c0-1.6-1.3-2.9-2.9-2.9s-2.9,1.3-2.9,2.9c0,0.2,0,0.4,0.1,0.6
			c-1.4,0.2-2.4,1.4-2.4,2.8c0,1.6,1.3,2.9,2.9,2.9c0.8,0,1.5-0.3,2-0.8l3.6,2.4c0.2-0.5,0.3-1,0.6-1.5c0.4-0.9,0.9-1.8,1.4-2.7
			L18.1,22.2z"/>
	</g>
	<rect class="st1" width="72" height="72"/>
</g>
</svg>
