<?xml version="1.0" encoding="utf-8"?>
<!-- Generator: Adobe Illustrator 22.0.1, SVG Export Plug-In . SVG Version: 6.00 Build 0)  -->
<svg version="1.1" id="Layer_1" xmlns="http://www.w3.org/2000/svg" xmlns:xlink="http://www.w3.org/1999/xlink" x="0px" y="0px"
	 viewBox="0 0 72 72" style="enable-background:new 0 0 72 72;" xml:space="preserve">
<style type="text/css">
	.st0{fill:#ECB913;}
	.st1{fill:#BB1B1B;}
	.st2{fill:#231F20;}
	.st3{fill:none;}
</style>
<g id="emoji_Relaxed" transform="translate(-94 -1171)">
	<g id="Ellipse_840">
		<ellipse class="st0" cx="130" cy="1207" rx="30" ry="30"/>
	</g>
	<g id="Path_6077">
		<path class="st1" d="M130,1225.5c-6.1,0-11.8-2.9-15.4-7.9c-0.8-1.1-0.6-2.7,0.6-3.5c1.1-0.8,2.7-0.6,3.5,0.6
			c2.7,3.7,7,5.9,11.7,5.8c0,0,0.1,0,0.1,0c4.6,0.1,9-2,11.7-5.8c0.8-1.1,2.4-1.4,3.5-0.6c1.1,0.8,1.4,2.4,0.6,3.5
			c-3.7,5.1-9.6,8-15.8,7.9C130.3,1225.5,130.1,1225.5,130,1225.5z"/>
	</g>
	<g id="Path_6078">
		<path class="st2" d="M138.1,1201.1c-0.3,0-0.6-0.1-1-0.2c-1.3-0.5-1.9-2-1.3-3.3c0.4-1,1.1-1.9,1.9-2.7c1.5-1.4,3.4-2.1,5.5-2
			c2,0.1,3.9,0.9,5.3,2.4c0.9,1,0.9,2.6-0.1,3.5c-1,0.9-2.6,0.9-3.5-0.1c-0.5-0.5-1.1-0.8-1.8-0.8c-0.7,0-1.4,0.2-1.9,0.7
			c-0.3,0.3-0.5,0.6-0.6,0.9C140.1,1200.5,139.1,1201.1,138.1,1201.1z"/>
	</g>
	<g id="Path_6079">
		<path class="st2" d="M112.7,1204.8c-0.3,0-0.6-0.1-1-0.2c-1.3-0.5-1.9-2-1.3-3.3c0.4-1,1.1-1.9,1.9-2.7c3.1-2.8,7.9-2.6,10.7,0.4
			c0.9,1,0.9,2.6-0.1,3.5c-1,0.9-2.6,0.9-3.5-0.1c-1-1.1-2.6-1.1-3.7-0.1c-0.3,0.3-0.5,0.6-0.6,0.9
			C114.6,1204.3,113.6,1204.8,112.7,1204.8z"/>
	</g>
</g>
<rect class="st3" width="72" height="72"/>
</svg>
