<?xml version="1.0" encoding="utf-8"?>
<!-- Generator: Adobe Illustrator 22.0.1, SVG Export Plug-In . SVG Version: 6.00 Build 0)  -->
<svg version="1.1" id="Layer_1" xmlns="http://www.w3.org/2000/svg" xmlns:xlink="http://www.w3.org/1999/xlink" x="0px" y="0px"
	 viewBox="0 0 72 72" style="enable-background:new 0 0 72 72;" xml:space="preserve">
<style type="text/css">
	.st0{fill:#0081A1;}
	.st1{fill:#FFFFFF;}
	.st2{fill:none;}
</style>
<g id="emoji_robot" transform="translate(-1694 -1492)">
	<g id="Group_9896" transform="translate(-919 17)">
		<g id="Group_9879" transform="translate(2520 291)">
			<g id="Group_9857" transform="translate(-1 -58)">
				<path class="st0" d="M144.7,1260.9H132v-2.1c1.4-0.6,2.4-2,2.4-3.6c0-2.1-1.7-3.9-3.9-3.9s-3.9,1.7-3.9,3.9c0,1.6,1,3,2.4,3.6
					v2.1h-13.8c-2.9,0-5.3,2.4-5.3,5.3v25.3c0,2.9,2.4,5.3,5.3,5.3h29.5c2.9,0,5.3-2.4,5.3-5.3v-25.3
					C150,1263.3,147.7,1260.9,144.7,1260.9z M116.7,1288.6c0-2,1.5-3.6,3.4-3.8v7.7C118.1,1292.1,116.7,1290.5,116.7,1288.6z
					 M125.9,1292.4H122v-7.8h3.9V1292.4z M131.8,1292.4h-3.9v-7.8h3.9V1292.4z M137.7,1292.4h-3.9v-7.8h3.9V1292.4z M139.7,1292.4
					v-7.7c2,0.2,3.6,1.8,3.6,3.9S141.7,1292.3,139.7,1292.4z"/>
				<g id="Group_9877" transform="translate(99.297 1267.026)">
					<g id="Rectangle_5794">
						<rect x="52.9" y="6.5" class="st0" width="4.4" height="8.9"/>
					</g>
					<g id="Rectangle_5795">
						<rect x="4" y="6.5" class="st0" width="4.4" height="8.9"/>
					</g>
				</g>
				<g id="Group_7386" transform="translate(109.623 1261.451)">
					<g id="Ellipse_947">
						<ellipse class="st1" cx="11" cy="11.4" rx="5.5" ry="5.5"/>
					</g>
					<g id="Ellipse_954">
						<ellipse class="st1" cx="30.7" cy="11.4" rx="5.5" ry="5.5"/>
					</g>
				</g>
				<rect x="94" y="1242" class="st2" width="72" height="72"/>
			</g>
		</g>
	</g>
</g>
</svg>
